<svg class="main-svg" xmlns="http://www.w3.org/2000/svg" xmlns:xlink="http://www.w3.org/1999/xlink" width="700" height="500" style="" viewBox="0 0 700 500"><rect x="0" y="0" width="700" height="500" style="fill: rgb(255, 255, 255); fill-opacity: 1;"/><defs id="defs-06e852"><g class="clips"><clipPath id="clip06e852xyplot" class="plotclip"><rect width="540" height="320"/></clipPath><clipPath class="axesclip" id="clip06e852x"><rect x="80" y="0" width="540" height="500"/></clipPath><clipPath class="axesclip" id="clip06e852y"><rect x="0" y="100" width="700" height="320"/></clipPath><clipPath class="axesclip" id="clip06e852xy"><rect x="80" y="100" width="540" height="320"/></clipPath></g><g class="gradients"/><g class="patterns"/></defs><g class="bglayer"><rect class="bg" x="80" y="100" width="540" height="320" style="fill: rgb(229, 236, 246); fill-opacity: 1; stroke-width: 0;"/></g><g class="layer-below"><g class="imagelayer"/><g class="shapelayer"/></g><g class="cartesianlayer"><g class="subplot xy"><g class="layer-subplot"><g class="shapelayer"/><g class="imagelayer"/></g><g class="gridlayer"><g class="x"><path class="xgrid crisp" transform="translate(171.57,0)" d="M0,100v320" style="stroke: rgb(255, 255, 255); stroke-opacity: 1; stroke-width: 1px;"/><path class="xgrid crisp" transform="translate(263.65,0)" d="M0,100v320" style="stroke: rgb(255, 255, 255); stroke-opacity: 1; stroke-width: 1px;"/><path class="xgrid crisp" transform="translate(355.61,0)" d="M0,100v320" style="stroke: rgb(255, 255, 255); stroke-opacity: 1; stroke-width: 1px;"/><path class="xgrid crisp" transform="translate(447.68,0)" d="M0,100v320" style="stroke: rgb(255, 255, 255); stroke-opacity: 1; stroke-width: 1px;"/><path class="xgrid crisp" transform="translate(539.64,0)" d="M0,100v320" style="stroke: rgb(255, 255, 255); stroke-opacity: 1; stroke-width: 1px;"/></g><g class="y"><path class="ygrid crisp" transform="translate(0,378.74)" d="M80,0h540" style="stroke: rgb(255, 255, 255); stroke-opacity: 1; stroke-width: 1px;"/><path class="ygrid crisp" transform="translate(0,340.3)" d="M80,0h540" style="stroke: rgb(255, 255, 255); stroke-opacity: 1; stroke-width: 1px;"/><path class="ygrid crisp" transform="translate(0,301.85)" d="M80,0h540" style="stroke: rgb(255, 255, 255); stroke-opacity: 1; stroke-width: 1px;"/><path class="ygrid crisp" transform="translate(0,263.40999999999997)" d="M80,0h540" style="stroke: rgb(255, 255, 255); stroke-opacity: 1; stroke-width: 1px;"/><path class="ygrid crisp" transform="translate(0,224.97)" d="M80,0h540" style="stroke: rgb(255, 255, 255); stroke-opacity: 1; stroke-width: 1px;"/><path class="ygrid crisp" transform="translate(0,186.51999999999998)" d="M80,0h540" style="stroke: rgb(255, 255, 255); stroke-opacity: 1; stroke-width: 1px;"/><path class="ygrid crisp" transform="translate(0,148.07999999999998)" d="M80,0h540" style="stroke: rgb(255, 255, 255); stroke-opacity: 1; stroke-width: 1px;"/><path class="ygrid crisp" transform="translate(0,109.64)" d="M80,0h540" style="stroke: rgb(255, 255, 255); stroke-opacity: 1; stroke-width: 1px;"/></g></g><g class="zerolinelayer"><path class="yzl zl crisp" transform="translate(0,417.18)" d="M80,0h540" style="stroke: rgb(255, 255, 255); stroke-opacity: 1; stroke-width: 2px;"/></g><path class="xlines-below"/><path class="ylines-below"/><g class="overlines-below"/><g class="xaxislayer-below"/><g class="yaxislayer-below"/><g class="overaxes-below"/><g class="plot" transform="translate(80,100)" clip-path="url(#clip06e852xyplot)"><g class="scatterlayer mlayer"><g class="trace scatter trace8c0497" style="stroke-miterlimit: 2; opacity: 1;"><g class="fills"/><g class="errorbars"/><g class="lines"><path class="js-line" d="M0,302.49L1.39,303.05L1.89,302.42L2.27,303.61L2.77,303.05L2.9,302.91L3.15,304L3.78,303.51L3.9,304L4.91,303.43L5.42,303.22L6.68,303.14L7.05,302.84L7.94,302.14L8.06,301.87L9.2,301.76L9.32,301.93L13.35,300.39L13.48,299.39L14.11,298.68L14.23,299.2L14.36,299.23L14.49,298.74L14.99,298.9L15.12,299.43L15.49,300.99L15.87,299.75L16.12,299.19L16.38,299.76L16.75,299.73L17.13,300.86L17.26,300.55L17.63,300.24L17.89,300.43L18.01,299.79L18.14,299.55L18.89,299.12L19.02,299.61L19.4,299.96L19.65,300.49L19.9,299.78L20.28,299.73L21.29,298.38L21.41,298.58L21.54,298.72L23.05,300.12L23.18,299.43L24.18,299.92L24.31,300.03L24.69,300.33L24.94,299.73L25.07,299.4L27.46,299.38L27.59,300.01L28.47,299.81L28.59,300.03L28.72,300.05L30.1,300.5L30.23,300L33.51,297.2L33.63,297.49L34.39,298.06L34.51,297.35L34.64,297.33L36.15,295.35L36.4,295.87L36.53,295.94L37.54,296.52L37.91,296.3L39.05,295.35L39.17,295.45L39.93,296.56L40.06,296.01L40.18,296.13L41.44,295.43L41.57,295.82L42.58,295.15L42.7,295.23L46.35,294.11L46.73,293.68L47.74,293.8L47.87,293.92L48.12,294.76L48.5,294.02L48.62,293.75L49,294.11L49.63,293.55L49.76,293.61L51.14,292.53L51.27,292.48L51.39,292.26L51.64,293.12L52.15,293.94L53.41,292.47L53.79,292.79L54.79,293.47L54.92,294.53L56.05,293.05L56.43,293.13L59.08,294.4L59.2,293.99L59.96,292.95L60.21,293.15L60.34,293.38L61.09,293.19L61.22,293.38L62.23,293.81L62.6,294.3L62.98,293.81L63.48,294.23L63.61,294.38L64.49,293.31L64.74,293.42L64.87,293.61L67.01,295.54L67.14,294.85L67.26,295.04L67.39,294.45L67.52,294.78L67.89,294.39L69.28,292.49L69.66,292.88L70.66,291.31L70.79,290.62L71.55,289.49L71.8,290.29L71.92,290.38L72.3,289.95L72.55,290.23L72.68,291.28L73.18,292.94L73.31,291.51L73.44,292.22L73.69,291.3L74.07,290.86L74.95,292.71L75.07,291.54L75.96,290.41L76.21,291.03L76.33,291.51L77.97,290.21L78.1,289.69L78.6,288.8L78.98,289.43L79.36,289.51L80.74,291.8L81.12,290.49L82.13,288.2L82.25,289.82L82.51,290.21L82.88,289.33L83.01,289.88L83.39,289.38L83.76,289.4L83.89,289.96L84.27,289.71L84.65,289.74L84.77,289.3L85.02,290.74L85.15,290.78L86.91,292.23L87.29,291.36L87.42,291.56L87.54,290.95L87.67,290.55L89.06,290.28L89.18,290.49L89.43,291.17L89.94,290.95L90.06,290L93.84,287.82L93.97,288.33L94.35,287.84L94.47,288.32L94.6,286.52L94.72,286.66L94.85,286.48L95.23,286.09L98,281.84L98.12,281.96L99.26,279.76L99.64,280.58L99.89,280.75L100.01,279.98L100.14,279.76L100.64,278.18L100.77,276.71L101.02,276.99L101.4,275.92L101.9,276.27L102.53,274.79L102.66,275.32L102.79,276.03L103.16,274.72L103.29,273.98L103.41,274.33L103.54,273.68L104.04,273.51L105.93,278.72L106.06,275.31L107.07,277.24L107.19,278.38L107.95,278.02L108.08,278.28L108.45,278.86L108.96,280.77L109.34,278.65L109.46,278.95L109.59,278.02L109.84,278.58L110.34,277.9L110.47,277.42L110.72,278.67L111.1,278.45L111.22,278.55L111.35,277.95L111.48,277.94L111.6,277.35L112.36,277.95L112.48,277.77L112.86,276.97L113.24,277.53L113.37,277.22L113.74,278L114,277.75L114.12,278.12L114.25,277.09L115.51,275.04L115.63,275.43L115.76,275.69L115.89,276.07L116.39,275.52L116.52,275.52L116.77,275.01L116.89,275.7L117.27,275.73L117.4,275.93L117.52,277.71L119.03,274.45L119.29,274.63L119.41,274.57L120.42,272.69L120.8,271.52L120.92,272.15L121.05,271.27L121.3,271.65L121.68,270.8L122.18,271.52L122.69,270.85L123.07,270.47L123.57,271.84L123.69,271.2L124.58,268.99L124.7,269.22L124.83,269.12L126.09,271.92L126.21,271.79L126.34,271.09L127.35,274.07L127.85,273.61L127.98,272.58L128.36,275.32L128.73,273.66L129.24,275.72L129.87,276.32L130.87,280.27L131,279.63L131.38,279.92L131.76,281.1L131.88,280.96L132.26,278.35L132.39,278.68L132.76,277.95L133.14,276.71L134.15,277.65L134.28,280.2L134.4,279.62L134.91,280.81L135.03,280.02L135.16,280.18L135.41,282.19L135.79,281.57L135.91,280.53L136.92,281.97L137.05,281.83L137.17,282.2L137.55,280.65L137.8,279.49L138.05,281.01L138.43,281.22L138.68,281.69L138.81,281.25L138.94,281.47L139.31,282.74L139.44,283.83L139.57,282.44L139.82,282.86L140.32,282.53L140.45,281.9L140.57,286.26L140.7,286.99L141.2,285.72L141.33,285.82L141.96,286.82L142.09,285.75L142.84,284.24L142.97,285.06L143.09,285.12L144.6,286.79L144.73,286.36L145.49,288.35L145.86,287.63L145.99,287.55L146.87,286.73L147.25,285.9L147.63,286.1L147.75,285.47L148.13,285.36L150.02,287.87L150.15,287.27L150.78,288.36L150.9,287.92L151.03,289.53L151.28,290.37L151.66,289.82L151.78,289.3L152.16,288.54L152.54,287.66L153.42,285.56L153.55,285.7L153.67,285.34L154.56,287.74L154.81,287.44L155.19,286.78L155.31,287L155.69,286.63L156.19,286.88L156.95,286.24L157.07,286.34L157.2,286.63L158.08,287.51L158.21,287.26L159.59,289.55L159.72,289.54L159.97,290.15L160.1,289.96L160.48,289.09L160.73,288.3L160.98,288.53L161.36,288.69L162.37,287.65L162.49,287.64L162.74,288.01L163.12,287.92L163.25,288.42L164.13,286.06L164.25,286.12L164.88,284.96L165.26,285.54L165.39,285.99L166.65,282.33L166.9,282.7L167.03,282.66L168.54,283.64L168.66,282.95L168.79,283.18L168.92,282.98L169.29,282.44L170.17,286.28L170.3,285.93L170.43,285.28L171.06,283.5L171.43,283.81L171.56,284.04L171.94,284.46L172.06,283.69L172.19,283.58L172.95,284.17L173.07,283.78L175.47,280.81L175.59,281.71L176.35,281.02L176.47,281.11L176.6,281.42L176.72,282L177.35,281.49L177.48,281.44L177.61,280.93L178.11,281.58L178.24,281.52L178.36,281.83L178.49,281.41L178.61,281.5L178.99,281.23L180.25,278.2L180.38,278.74L180.88,278.36L181.13,278.7L181.26,279.12L181.76,279.08L181.89,279.37L182.02,279.81L182.52,278.05L183.02,278.73L183.4,279.12L183.53,278.67L183.9,280.05L184.28,279.84L184.79,280.6L185.16,280.41L185.29,279.68L185.42,278.92L185.67,280.07L186.17,279.49L186.93,279.39L187.05,282.41L187.81,282.75L187.94,282.26L189.7,279.7L189.83,280.29L190.71,281.67L190.83,280.96L191.71,280.75L191.84,280.77L192.6,280.76L192.72,281.16L193.98,280.17L194.11,279.77L194.86,280.34L194.99,280L196.88,281.55L197,281.15L197.63,280.68L197.76,281.16L197.89,278.21L199.27,275.93L199.4,276.38L199.78,276.99L200.15,276.49L200.28,276.42L200.53,276.76L200.66,276.17L201.04,275.68L201.54,275.02L202.04,274.24L202.3,273.57L202.8,274.03L202.93,273.42L203.81,271.89L203.93,272.08L204.06,272.83L204.18,273.32L204.81,272.89L204.94,273.04L205.57,273.8L205.82,273.5L205.95,272.98L208.09,270.84L208.22,271.38L208.47,272.45L208.97,272.04L209.1,271.67L209.85,269.6L209.98,269.91L210.1,270.02L210.99,271.55L211.11,271.78L212.5,269.53L212.62,268.88L213.76,268.05L213.88,267.93L214.39,267.54L214.51,269.64L215.27,270.1L215.4,268.65L216.4,268.27L216.53,268.67L217.16,268.29L217.28,270.15L217.91,268.77L218.04,269.52L218.17,269.18L218.8,269.73L218.92,268.75L219.17,268.78L219.55,269.22L219.93,270.93L220.06,270.25L220.43,269.25L221.44,265.89L221.57,265.6L221.69,265.78L221.82,265.29L222.2,264.61L222.58,264.95L222.7,264.8L223.08,264.89L224.84,260.18L224.97,260.67L225.35,260.03L225.72,261.89L225.98,261.47L226.98,263.55L227.11,264.45L227.61,265.89L227.74,264.61L227.87,263.05L228.62,263.36L228.87,262.41L229.38,263.11L229.5,264.14L230.26,266.12L230.38,265.41L230.51,263.42L231.52,266.25L232.02,264.94L232.78,262.83L232.9,264.74L233.16,260.05L233.79,260.17L233.91,259.73L234.16,260.03L234.67,258.55L234.79,257.17L235.93,254.95L236.31,253.27L236.81,255.45L237.19,255.15L237.31,255.02L238.32,258.44L238.57,257.79L238.95,257.14L239.2,255.45L239.83,256.05L239.96,256.3L240.34,257.96L240.71,256.46L240.84,257.39L240.97,257.48L241.09,256.96L241.6,255.99L241.85,256.83L242.1,256.11L242.48,256.23L242.98,257.24L243.36,255.87L243.48,256.2L243.74,254.87L243.86,254.58L244.24,253.44L244.37,254.44L244.49,255.37L244.74,255.22L245.37,257.11L245.5,256.99L246.38,255.22L246.51,255.3L247.39,253.49L247.89,254.9L248.02,253.73L248.65,254.45L248.78,254.73L250.66,256.01L250.79,255.73L250.92,256.35L251.42,256.14L251.55,255.62L252.18,257.34L252.55,256.42L253.06,256.64L253.18,256.78L253.31,258.28L253.44,259.49L253.56,257.94L253.94,256.8L254.82,253.72L254.95,254.35L255.07,257.01L256.21,258.89L256.59,260.27L256.71,262.09L257.09,261.67L257.47,259.65L257.59,262.65L257.97,261.46L258.35,260.88L258.73,263.05L258.85,266.36L259.23,267.63L259.36,267.33L259.48,264.47L259.73,262.74L260.11,263L260.24,265.42L260.36,263.2L260.62,264.68L261.12,263.21L261.25,264.25L261.5,262.3L261.88,261.77L262.13,261.24L262.38,262.67L262.76,261.82L263.76,264.78L263.89,264.18L264.02,264.53L264.52,263.95L264.65,263.69L264.9,264.56L265.02,263.31L265.4,263.56L265.65,264.22L266.28,263.49L266.41,262.51L266.79,259.96L267.17,261.79L267.29,262.14L267.42,259.87L268.17,258.28L268.3,258.56L268.43,259.08L268.93,259.25L269.06,261.07L269.43,263.2L269.94,262.55L270.06,260.82L270.31,259.86L270.82,260.06L270.94,260.47L271.7,260.8L271.83,261.31L271.95,261.83L272.08,259.99L272.46,260.35L273.84,266.23L274.22,265.61L274.35,265.66L274.47,264.99L274.6,265.27L275.1,265.85L275.23,264.93L275.48,266.6L275.98,266.56L276.36,270.84L276.86,269.84L276.99,269.15L277.87,270.73L278,270.67L278.12,270.91L278.25,268.45L278.63,269.4L278.75,269.13L278.88,272.29L279.13,270.41L279.51,270.85L279.64,271.78L279.89,270.76L280.01,272L280.39,271.53L280.52,271.54L280.77,272.16L280.9,272.02L281.4,270.74L281.53,270.03L281.78,271.03L282.16,270.63L282.28,271.68L283.54,267.68L283.92,268.23L284.3,268.57L284.42,268.04L284.8,267.92L285.81,265.9L285.93,266.18L286.56,266.64L286.69,265.44L287.45,263.79L287.57,264.42L287.7,263.86L287.82,265.03L288.45,264.11L288.58,263.34L290.34,270.18L290.47,271.61L291.1,271.45L291.35,272.38L291.48,272.63L292.11,272.73L292.23,273.77L292.36,273.69L292.74,272.07L292.86,272.26L292.99,271.74L293.11,271.92L293.24,271.43L294.63,269.2L294.75,269.87L294.88,270.23L295.38,269.79L295.51,269.6L295.76,269.3L295.89,269.69L296.26,270.41L296.64,270.31L296.77,271.37L297.52,271L297.65,272.3L298.03,272.95L298.15,272.21L298.28,271.82L298.53,271.1L299.03,271.54L299.16,271.28L300.92,269.15L301.05,269.4L301.18,269.77L301.68,270.73L301.81,267.71L302.94,265.54L303.32,265.11L303.57,265.29L304.32,264.62L304.45,264.7L305.21,264.88L305.33,265.27L306.21,266.2L306.34,265.9L306.47,265.42L307.1,265.11L307.22,266.48L307.35,267.63L307.73,266.52L307.85,265.31L308.1,261.65L308.73,262.61L308.86,262.62L308.99,262.1L309.11,263.02L309.49,262.94L309.62,262.84L309.74,262.43L309.87,263.28L309.99,262.86L310.37,263.11L312.26,260.73L312.39,260.9L312.64,261.15L313.02,260.65L313.14,260.36L314.28,264.41L314.4,264.88L314.91,263.82L315.03,263.9L315.16,265.39L315.28,265.08L315.66,266.39L316.67,263.46L316.79,263.73L317.55,263.62L317.68,264.07L318.31,264.75L318.43,264.35L318.56,263.83L319.69,261.46L320.07,261.13L321.08,260.84L321.2,261.08L322.09,261.43L322.21,261.15L322.97,259.64L323.09,259.88L323.22,259.98L325.49,258.87L325.61,255.31L325.74,255.42L325.86,255.16L326.24,254.57L327.38,252.07L327.5,252.14L327.63,251.96L329.01,251.35L329.14,250.01L330.02,250.39L330.15,250.54L331.53,249.21L331.66,249.99L332.67,247.93L332.79,248.02L334.56,249.4L335.06,249.03L335.31,249.58L335.44,248.74L335.56,248.82L335.94,248.16L336.95,246.3L337.07,246.52L337.2,246.77L338.21,242.17L338.59,242.36L338.71,242.47L338.84,244.98L339.47,243.19L339.72,243.5L339.85,243.24L340.6,243.78L340.73,243.57L340.85,242.48L341.23,243.21L341.61,242.7L341.74,245.59L342.62,248.82L343,246.86L343.12,247.5L343.5,246.89L343.88,247.11L344.76,248.23L345.01,247.94L345.14,248.6L345.64,247.48L345.77,247.25L346.02,246.17L346.14,245.56L347.53,243.79L347.66,243.44L348.29,245.71L348.41,245.08L348.54,241.67L348.66,242.43L349.17,240.87L349.29,240.26L349.42,239.79L349.55,242.55L350.17,239.53L350.43,241.33L350.55,241.5L350.93,241.64L351.06,240.4L351.81,239.59L351.94,238.9L352.32,238.35L352.82,239.3L353.07,239.69L353.2,240.96L353.58,239.58L353.83,240.47L353.95,241.12L354.08,240.36L354.58,240.91L354.71,242.19L355.34,244.84L355.47,243.59L355.59,243.07L355.72,243.53L356.22,243.27L356.35,242.95L356.47,243.43L356.6,242.51L356.72,242.56L357.1,242.3L357.98,240.36L358.11,240.07L358.87,242.14L358.99,241.69L359.12,242.02L359.24,241.54L359.37,238.83L360.88,232.49L361.13,233.25L361.51,233.58L361.76,235.93L362.39,235.5L362.52,233.98L362.9,233.1L363.28,233.53L363.4,234.02L363.53,235.74L364.16,235.59L364.28,235.66L364.41,235.97L364.66,235.79L365.04,234.21L365.16,234.68L365.54,233.58L365.92,232.41L366.93,235.22L367.05,235.2L367.18,234.97L367.31,235.86L367.81,234.41L367.94,234.42L369.07,232.08L369.57,232.52L369.83,231.04L370.33,232.13L370.45,232.11L372.09,241.98L372.22,238.84L372.47,242.63L372.6,242.02L372.97,239L373.35,234.06L373.98,234.6L374.11,234.98L374.74,231.18L374.99,231.59L375.12,233.09L376.5,229.86L376.63,230.7L377.89,237.92L378.26,234.16L378.52,237.18L379.15,237.09L379.27,236.27L380.15,233.93L380.28,234.32L381.04,231.53L381.16,231.72L381.29,234.15L381.92,238.88L382.17,238.27L382.3,239.18L382.8,235.92L382.93,232.33L383.05,232.18L383.18,228.85L383.81,227.15L383.93,225.86L384.94,227.65L385.32,227.02L385.44,227.25L385.57,226.67L385.82,226.56L386.33,226.89L386.58,227.39L386.7,225.77L387.33,223.97L387.59,225.06L387.96,225.29L388.09,224.79L388.22,225.54L388.34,225.5L388.47,226.44L388.85,226.49L388.97,227.95L389.1,227.56L389.35,228.32L389.73,229.64L390.61,227.24L390.73,228.8L391.99,225.24L392.37,225.44L392.62,225.69L393.51,223.56L393.63,223.86L393.76,225.41L394.14,225.92L394.26,225.74L394.39,220.35L395.02,216.72L395.14,217.66L395.27,217.59L396.4,212.63L396.78,213.65L397.03,213.84L397.28,213.31L397.66,212.45L398.67,207.45L398.8,208.16L398.92,209.98L399.43,212.27L399.55,209.61L399.68,210.95L399.8,208.38L400.81,212.59L401.19,211.09L401.44,211.26L402.32,205.66L402.45,207.63L402.58,209.4L402.95,209.65L403.08,208.16L403.33,214.13L403.83,212.73L403.96,210.43L404.21,213.38L404.34,211.8L404.72,211.15L404.84,210.15L404.97,213.82L405.22,213.24L405.6,215.19L405.98,210.4L406.1,217.48L406.48,220.31L406.61,219.26L406.73,216.29L407.36,223.88L407.49,224.81L407.87,224.18L408.5,232.23L408.75,234.39L409.13,233.27L409.25,233.45L409.38,230.23L409.63,231.37L410.01,228.37L410.51,236.22L410.89,235.68L411.01,236.15L411.27,235.04L411.39,237.66L411.77,238.4L411.9,237.38L412.02,239.87L412.65,246.63L412.9,241.66L413.03,242.15L413.53,241.38L413.79,241.3L413.91,248.86L414.54,244.74L414.67,243.51L414.79,243.28L414.92,244L415.3,245.1L415.8,241.83L416.31,243.52L416.43,243.22L416.56,243.81L416.68,241.37L417.19,242.85L417.31,237.77L418.19,233.45L418.32,235.04L418.45,235.29L418.82,235.77L419.33,235.29L419.83,235.05L420.84,233.15L420.97,233.98L421.47,232.68L421.72,233.32L421.85,234.29L421.97,234.09L422.35,231.22L423.61,223.44L423.74,225.38L424.11,226.49L424.24,227.42L424.62,225.91L425,225.29L426.13,220.78L426.26,221.58L426.89,221.44L427.01,219.57L427.77,217.48L428.02,218.54L428.15,219.01L428.52,218.86L428.65,220.75L429.03,215.43L429.41,217L429.53,219.7L429.91,222.43L430.29,227.94L430.54,225.44L430.79,226.36L431.17,229.2L431.29,227.52L431.67,231.18L432.18,231.54L432.93,233.91L433.06,230.86L433.94,223.57L434.19,223.89L434.32,224.56L434.7,224.01L434.82,221.82L435.07,221.34L435.7,223.2L435.83,221.17L436.08,222.08L436.46,220.33L436.71,218.96L436.96,219.04L437.34,221.07L438.22,218.57L438.35,218.91L438.47,219.47L438.73,219.83L439.23,216.83L439.36,216.91L439.48,217.7L440.24,214.81L440.36,217.02L440.87,224.28L441.25,219.43L441.37,220.6L441.75,220.85L441.88,216.77L442.13,220.24L442.25,217.95L442.63,216.1L442.88,215L443.01,215.09L443.14,219.81L443.89,216.75L444.02,216.88L444.52,218.34L445.53,209.74L445.65,209.98L445.78,212.07L446.41,210.13L446.54,211L446.66,212.56L447.04,212.08L447.17,212.58L447.29,210.97L447.54,212.03L447.92,209.56L448.05,209.26L448.17,211.96L449.31,203.68L449.69,203.84L449.81,204.1L449.94,204.56L450.19,203.58L450.57,201.61L450.69,201.87L450.82,200.33L451.07,198.69L451.45,197.51L451.7,200.29L451.95,194.25L452.33,193.44L452.58,193.57L452.71,192.52L454.09,188.83L454.22,189.22L454.35,190.71L454.6,191.39L454.98,189.18L455.23,188.48L455.98,192.51L456.11,191.41L457.24,184.96L457.62,182.7L458.63,180.58L458.88,177.87L459.51,176.07L459.76,172.85L459.89,174.26L460.39,173.8L460.52,171.49L461.15,164.87L461.4,167.57L461.53,165.7L462.41,163.78L462.53,164.22L462.91,168.72L463.04,164.52L463.16,161.33L463.29,161.55L463.41,168.45L463.79,168.86L463.92,163.96L464.17,160.91L464.67,162.67L464.8,163.6L464.93,159.95L465.18,161.03L465.68,163.89L465.81,161.67L466.06,166.75L466.44,173.9L466.94,185.82L467.32,173.59L467.57,171.7L468.2,189.28L468.33,180.07L469.08,200.79L469.34,198.65L469.46,199.56L469.97,209.36L470.09,198.55L470.22,199.2L470.34,192.99L470.97,194.99L471.1,201.42L472.74,179.24L472.99,179.42L473.11,181.29L473.62,188.22L473.87,185.02L474,181.21L474.37,181.11L474.5,183.31L475.51,172.72L475.63,171.22L476.14,165.81L476.39,169.35L476.52,168.44L476.64,169.32L477.02,165.83L477.14,166.71L477.27,163.78L477.4,164.92L477.52,163.94L478.03,164.98L478.4,164.4L478.78,162.52L479.66,156.94L479.79,151.88L479.92,147.63L480.04,155.77L480.17,154.38L480.55,152.36L481.55,141.05L481.68,144.16L481.93,147.25L482.44,141.88L482.56,142.21L484.32,129.34L484.45,131.65L484.58,132.03L484.95,128.12L485.21,130.21L485.33,138.72L485.46,139.16L485.84,134.94L485.96,137.94L486.21,132.29L486.34,112.93L487.1,98.24L487.6,100.5L487.73,106.95L488.61,95.05L488.73,94.78L489.62,73.99L489.74,76.89L489.87,77.28L490.37,59.27L490.5,64.61L490.62,84.83L490.75,84.68L491.25,100.33L491.38,91.68L491.63,101.9L492.01,95.44L492.13,95.1L492.51,111.82L493.14,111.28L493.27,109.17L494.15,92.69L494.28,99.94L495.54,78.07L495.79,84.24L495.91,85.16L496.92,96.06L497.3,96.04L497.42,93.06L497.55,103.44L497.68,95.52L497.8,107.94L498.18,108.11L498.31,104.9L498.56,88.39L499.19,94.27L499.31,87.5L499.44,88.04L499.57,87.95L499.94,85.95L500.83,98.35L501.08,94.16L501.33,93.08L502.72,78.11L502.84,83.1L503.85,69.8L503.97,73.72L504.35,70.7L505.23,54.44L505.36,57.94L506.37,73.84L506.49,65.53L506.62,63.36L507.5,72.8L508.01,71.47L508.89,42.01L509.01,44.12L509.14,53.67L509.27,63.54L509.9,59.73L510.02,53.1L512.54,76.24L512.67,84.62L512.79,84.1L513.17,71.55L514.05,93.52L514.18,84.43L514.3,86.56L515.06,75.82L515.19,77.37L515.31,85.51L515.44,86.54L515.82,80.01L516.07,86.35L516.32,84.2L516.7,83.85L516.82,86.72L517.07,80.76L517.58,75.18L517.83,71.34L517.96,66.61L518.84,58.65L518.96,59.31L519.34,58L519.47,61.32L519.72,63.57L520.22,58.23L520.35,58.86L520.48,60.42L520.6,60.61L520.73,64.5L521.11,62.42L521.23,71.44L521.48,67.8L521.61,66.9L522.24,81.2L522.37,76.97L522.49,72.2L523.12,77.51L523.25,72.47L524.13,76.38L524.25,77.66L524.76,78.3L524.88,76.8L525.01,79.72L525.51,75.18L525.64,73.57L525.89,74.78L526.02,72.4L526.4,66.38L526.52,67.99L526.77,63.86L526.9,66.42L527.28,62.88L528.29,55.14L528.41,53.92L528.54,53.33L528.66,48.16L530.05,37.24L530.17,30.49L530.8,43.37L530.93,36.26L531.06,37.7L531.18,35.01L531.31,31.63L531.69,30.8L531.81,35.07L531.94,38.51L532.57,37.47L532.69,33.93L533.58,37.32L533.7,36.82L533.83,30.99L533.95,30.59L534.33,26.71L534.58,35.86L534.84,32.34L535.21,29.42L535.34,29.59L535.47,32.01L535.59,33.59L535.72,31.55L536.1,22.86L536.22,25.34L536.6,20.59L537.1,16L538.36,36.43L538.74,42.43L539.24,34.78L539.62,37.76L540,45.2" style="vector-effect: non-scaling-stroke; fill: none; stroke: rgb(99, 110, 250); stroke-opacity: 1; stroke-width: 2px; opacity: 1;"/></g><g class="points"/><g class="text"/></g></g></g><g class="overplot"/><path class="xlines-above crisp" d="M0,0" style="fill: none;"/><path class="ylines-above crisp" d="M0,0" style="fill: none;"/><g class="overlines-above"/><g class="xaxislayer-above"><g class="xtick"><text text-anchor="middle" x="0" y="433" transform="translate(171.57,0)" style="font-family: 'Open Sans', verdana, arial, sans-serif; font-size: 12px; fill: rgb(42, 63, 95); fill-opacity: 1; white-space: pre; opacity: 1;">2012</text></g><g class="xtick"><text text-anchor="middle" x="0" y="433" style="font-family: 'Open Sans', verdana, arial, sans-serif; font-size: 12px; fill: rgb(42, 63, 95); fill-opacity: 1; white-space: pre; opacity: 1;" transform="translate(263.65,0)">2014</text></g><g class="xtick"><text text-anchor="middle" x="0" y="433" style="font-family: 'Open Sans', verdana, arial, sans-serif; font-size: 12px; fill: rgb(42, 63, 95); fill-opacity: 1; white-space: pre; opacity: 1;" transform="translate(355.61,0)">2016</text></g><g class="xtick"><text text-anchor="middle" x="0" y="433" style="font-family: 'Open Sans', verdana, arial, sans-serif; font-size: 12px; fill: rgb(42, 63, 95); fill-opacity: 1; white-space: pre; opacity: 1;" transform="translate(447.68,0)">2018</text></g><g class="xtick"><text text-anchor="middle" x="0" y="433" style="font-family: 'Open Sans', verdana, arial, sans-serif; font-size: 12px; fill: rgb(42, 63, 95); fill-opacity: 1; white-space: pre; opacity: 1;" transform="translate(539.64,0)">2020</text></g></g><g class="yaxislayer-above"><g class="ytick"><text text-anchor="end" x="79" y="4.199999999999999" transform="translate(0,417.18)" style="font-family: 'Open Sans', verdana, arial, sans-serif; font-size: 12px; fill: rgb(42, 63, 95); fill-opacity: 1; white-space: pre; opacity: 1;">0</text></g><g class="ytick"><text text-anchor="end" x="79" y="4.199999999999999" style="font-family: 'Open Sans', verdana, arial, sans-serif; font-size: 12px; fill: rgb(42, 63, 95); fill-opacity: 1; white-space: pre; opacity: 1;" transform="translate(0,378.74)">20</text></g><g class="ytick"><text text-anchor="end" x="79" y="4.199999999999999" style="font-family: 'Open Sans', verdana, arial, sans-serif; font-size: 12px; fill: rgb(42, 63, 95); fill-opacity: 1; white-space: pre; opacity: 1;" transform="translate(0,340.3)">40</text></g><g class="ytick"><text text-anchor="end" x="79" y="4.199999999999999" style="font-family: 'Open Sans', verdana, arial, sans-serif; font-size: 12px; fill: rgb(42, 63, 95); fill-opacity: 1; white-space: pre; opacity: 1;" transform="translate(0,301.85)">60</text></g><g class="ytick"><text text-anchor="end" x="79" y="4.199999999999999" style="font-family: 'Open Sans', verdana, arial, sans-serif; font-size: 12px; fill: rgb(42, 63, 95); fill-opacity: 1; white-space: pre; opacity: 1;" transform="translate(0,263.40999999999997)">80</text></g><g class="ytick"><text text-anchor="end" x="79" y="4.199999999999999" style="font-family: 'Open Sans', verdana, arial, sans-serif; font-size: 12px; fill: rgb(42, 63, 95); fill-opacity: 1; white-space: pre; opacity: 1;" transform="translate(0,224.97)">100</text></g><g class="ytick"><text text-anchor="end" x="79" y="4.199999999999999" style="font-family: 'Open Sans', verdana, arial, sans-serif; font-size: 12px; fill: rgb(42, 63, 95); fill-opacity: 1; white-space: pre; opacity: 1;" transform="translate(0,186.51999999999998)">120</text></g><g class="ytick"><text text-anchor="end" x="79" y="4.199999999999999" style="font-family: 'Open Sans', verdana, arial, sans-serif; font-size: 12px; fill: rgb(42, 63, 95); fill-opacity: 1; white-space: pre; opacity: 1;" transform="translate(0,148.07999999999998)">140</text></g><g class="ytick"><text text-anchor="end" x="79" y="4.199999999999999" style="font-family: 'Open Sans', verdana, arial, sans-serif; font-size: 12px; fill: rgb(42, 63, 95); fill-opacity: 1; white-space: pre; opacity: 1;" transform="translate(0,109.64)">160</text></g></g><g class="overaxes-above"/></g></g><g class="polarlayer"/><g class="ternarylayer"/><g class="geolayer"/><g class="funnelarealayer"/><g class="pielayer"/><g class="iciclelayer"/><g class="treemaplayer"/><g class="sunburstlayer"/><g class="glimages"/><defs id="topdefs-06e852"><g class="clips"/></defs><g class="layer-above"><g class="imagelayer"/><g class="shapelayer"/></g><g class="infolayer"><g class="g-gtitle"><text class="gtitle" x="35" y="50" text-anchor="start" dy="0em" style="font-family: 'Open Sans', verdana, arial, sans-serif; font-size: 17px; fill: rgb(42, 63, 95); opacity: 1; font-weight: normal; white-space: pre;">Preço das ações da Apple ao fechar a bolsa</text></g><g class="g-xtitle"><text class="xtitle" x="350" y="460.8" text-anchor="middle" style="font-family: 'Open Sans', verdana, arial, sans-serif; font-size: 14px; fill: rgb(42, 63, 95); opacity: 1; font-weight: normal; white-space: pre;">Data</text></g><g class="g-ytitle"><text class="ytitle" transform="rotate(-90,31.309375000000003,260)" x="31.309375000000003" y="260" text-anchor="middle" style="font-family: 'Open Sans', verdana, arial, sans-serif; font-size: 14px; fill: rgb(42, 63, 95); opacity: 1; font-weight: normal; white-space: pre;">Preço de fechamento</text></g></g></svg>